<svg xmlns="http://www.w3.org/2000/svg" xmlns:xlink="http://www.w3.org/1999/xlink" width="194" height="55" viewBox="0 0 194 55">
    <defs>
        <path id="a" d="M0 .227h54.77v54.239H0z"/>
    </defs>
    <g fill="none" fill-rule="evenodd">
        <path fill="#646464" d="M165.24 15.904l-2.15 5.067h4.277l-2.126-5.067zm5.157 12.256l-1.588-3.77h-7.16l-1.59 3.77h-4.056l7.38-17.448h3.69l7.38 17.448h-4.056zM94.79 25.75c-1.727 1.722-3.853 2.584-6.378 2.584s-4.65-.862-6.378-2.584c-1.727-1.722-2.59-3.865-2.59-6.427 0-2.563.863-4.706 2.59-6.428 1.727-1.722 3.853-2.584 6.378-2.584s4.651.862 6.378 2.584c1.727 1.722 2.59 3.865 2.59 6.428 0 2.562-.863 4.705-2.59 6.427zm-1.295-6.415c0-1.556-.489-2.883-1.467-3.98-.977-1.1-2.178-1.648-3.604-1.648-1.425 0-2.627.548-3.604 1.647-.978 1.098-1.466 2.425-1.466 3.98 0 1.557.488 2.88 1.466 3.97.977 1.09 2.179 1.635 3.604 1.635 1.426 0 2.627-.545 3.604-1.635.978-1.09 1.467-2.413 1.467-3.97zm29.697-8.624H129.954c2.623 0 4.533.52 5.731 1.56 1.197 1.04 1.796 2.638 1.796 4.793 0 2.155-.615 3.731-1.845 4.73-1.23.998-3.108 1.498-5.633 1.498h-1.32v-3.37h1.614c1.27 0 2.134-.263 2.59-.786.456-.525.684-1.29.684-2.297 0-1.007-.298-1.723-.892-2.146-.595-.425-1.52-.637-2.773-.637h-2.175V28.16h-3.813V14.057h-.725v-3.345zm-23.312 0h5.882l4.398 9.585 4.423-9.585h5.132V28.16h-3.812V17.177l-4.619 9.535h-2.272l-4.594-9.535V28.16h-3.812V14.057h-.726v-3.345zm44.393 11.882h2.639l3.788 5.566h4.692l-4.325-6.24c2.166-.816 3.25-2.621 3.25-5.417 0-2.03-.567-3.503-1.698-4.418-1.133-.915-3.027-1.373-5.682-1.373h-7.201v3.345h.725V28.16h3.812v-5.566zm.954-3.37h-.954v-5.168h2.859c1.222 0 2.078.176 2.566.525.489.35.733.994.733 1.935 0 .94-.236 1.626-.708 2.059-.473.432-1.36.648-2.664.648H145.228zm-74.483 5.491c1.874 0 3.406-.757 4.595-2.271l2.443 2.571c-1.938 2.23-4.224 3.344-6.854 3.344-2.631 0-4.798-.848-6.5-2.546-1.703-1.697-2.554-3.84-2.554-6.427 0-2.588.868-4.747 2.603-6.477 1.734-1.73 3.856-2.597 6.365-2.597 2.802 0 5.148 1.09 7.038 3.27l-2.37 2.746c-1.206-1.53-2.704-2.296-4.496-2.296-1.434 0-2.66.478-3.679 1.435-1.017.957-1.527 2.246-1.527 3.869 0 1.623.481 2.925 1.442 3.907.961.981 2.126 1.472 3.494 1.472z"/>
        <path fill="#FD6C09" d="M177.954 42.054c.65 0 1.208-.106 1.676-.317.468-.211.957-.548 1.468-1.01l1.213 1.203c-1.18 1.265-2.615 1.898-4.3 1.898-1.687 0-3.086-.524-4.197-1.574-1.112-1.05-1.668-2.376-1.668-3.982 0-1.604.567-2.941 1.7-4.011 1.132-1.07 2.563-1.605 4.292-1.605 1.728 0 3.173.617 4.332 1.852l-1.197 1.265c-.532-.493-1.034-.838-1.508-1.034-.473-.195-1.029-.293-1.667-.293-1.128 0-2.074.352-2.84 1.057-.766.704-1.15 1.605-1.15 2.7 0 1.096.381 2.011 1.141 2.747.761.735 1.663 1.104 2.705 1.104zm-10.793 1.65h1.883V32.918h-1.883v10.786zm-6.805 0h-2.106l-4.484-10.786h2.107l3.43 8.055 3.43-8.055h2.107l-4.484 10.786zm-13.06-5.277c1.064 0 1.787-.16 2.17-.478.383-.32.575-.83.575-1.536 0-.704-.197-1.188-.59-1.45-.394-.262-1.096-.393-2.107-.393h-2.393v3.857h2.346zm-22.792-4.089c-.548 0-.997.108-1.348.324-.351.216-.526.542-.526.98 0 .437.175.771.526 1.003.351.231 1.099.481 2.242.748 1.144.268 2.005.643 2.585 1.127.58.483.87 1.196.87 2.137 0 .941-.368 1.705-1.102 2.292-.733.586-1.697.88-2.888.88-1.744 0-3.292-.582-4.643-1.744l1.18-1.374c1.128.946 2.299 1.42 3.512 1.42.605 0 1.087-.126 1.443-.378.357-.252.535-.587.535-1.004 0-.416-.168-.74-.503-.972-.335-.231-.912-.442-1.73-.632-.82-.19-1.442-.365-1.868-.525a4.248 4.248 0 0 1-1.133-.625c-.66-.483-.99-1.224-.99-2.222s.376-1.767 1.126-2.307c.75-.54 1.678-.81 2.784-.81.713 0 1.42.113 2.122.34a5.623 5.623 0 0 1 1.82.956l-1.006 1.374c-.33-.289-.777-.525-1.34-.71a5.316 5.316 0 0 0-1.668-.278zm-12.797 3.966c0-2.47-1.461-3.704-4.388-3.704h-1.882v7.392h2.09c1.351 0 2.386-.311 3.104-.934.718-.622 1.076-1.54 1.076-2.754zM98.76 42.216c-1.128 1.064-2.521 1.597-4.18 1.597-1.66 0-3.054-.533-4.181-1.597-1.128-1.065-1.692-2.393-1.692-3.981 0-1.59.564-2.917 1.692-3.982 1.127-1.064 2.521-1.597 4.18-1.597 1.66 0 3.053.533 4.181 1.597 1.128 1.065 1.691 2.392 1.691 3.982 0 1.588-.563 2.916-1.691 3.98zm-1.38-6.752c-.761-.76-1.694-1.141-2.8-1.141-1.107 0-2.04.38-2.801 1.141-.76.762-1.141 1.685-1.141 2.77 0 1.086.38 2.009 1.141 2.77.76.761 1.694 1.142 2.8 1.142 1.107 0 2.04-.38 2.8-1.142.761-.761 1.142-1.684 1.142-2.77 0-1.085-.38-2.008-1.141-2.77zM84.63 42.216c-1.128 1.064-2.52 1.597-4.18 1.597-1.66 0-3.054-.533-4.181-1.597-1.128-1.065-1.691-2.393-1.691-3.981 0-1.59.563-2.917 1.69-3.982 1.128-1.064 2.522-1.597 4.181-1.597 1.66 0 3.053.533 4.181 1.597 1.128 1.065 1.691 2.392 1.691 3.982 0 1.588-.563 2.916-1.691 3.98zm-1.38-6.752c-.76-.76-1.694-1.141-2.8-1.141-1.106 0-2.04.38-2.801 1.141-.76.762-1.14 1.685-1.14 2.77 0 1.086.38 2.009 1.14 2.77.76.761 1.695 1.142 2.8 1.142 1.107 0 2.04-.38 2.8-1.142.761-.761 1.142-1.684 1.142-2.77 0-1.085-.38-2.008-1.141-2.77zm19.822-2.546h4.311c2 0 3.537.471 4.61 1.412 1.075.941 1.612 2.25 1.612 3.927s-.52 3.005-1.564 3.981c-1.041.978-2.637 1.466-4.786 1.466h-3.702v-9.088h-.481v-1.698zm28.354 0h8.315v1.713h-5.952v2.855h5.345v1.62h-5.345v2.886h6.143v1.712h-8.025v-9.088h-.481v-1.698zm11.16 0h4.63c1.701 0 2.92.278 3.654.833.734.556 1.1 1.446 1.1 2.67 0 1.78-.802 2.902-2.409 3.364l2.92 3.92h-2.393l-2.665-3.626h-2.473v3.625h-1.883v-9.088h-.481v-1.698zm42.265 0h8.316v1.713h-5.952v2.855h5.346v1.62h-5.346v2.886h6.143v1.712h-8.026v-9.088h-.48v-1.698zM66.817 34.616v2.963h4.946v1.681h-4.946v4.444h-1.883v-9.088h-.48v-1.698h7.916l-.017 1.698h-5.536z"/>
        <g>
            <mask id="b" fill="#fff">
                <use xlink:href="#a"/>
            </mask>
            <path fill="#FD6C09" d="M35.517 20.094c1.04-4.823-3.29-8.577-7.44-7.999 3.926.298 7.18 4.29 7.44 7.999zm-17.3 25.337h-.62a1.303 1.303 0 0 1-1.305-1.293v-1.293h22.835c2.306.014 4.816-.024 6.785-1.246 2.165-1.344 3.991-3.518 5.07-6.786l.014-.048a24.175 24.175 0 0 0 1.153-7.419c0-6.772-2.773-12.902-7.253-17.34a24.809 24.809 0 0 0-17.51-7.182 24.81 24.81 0 0 0-17.511 7.182c-4.481 4.438-7.253 10.568-7.253 17.34 0 6.773 2.772 12.903 7.253 17.34a24.81 24.81 0 0 0 17.51 7.183c1.821 0 3.593-.193 5.296-.56 1.76-.38 3.445-.941 5.029-1.66a1.311 1.311 0 0 1 1.73.638c.3.65.012 1.417-.645 1.714a27.344 27.344 0 0 1-5.562 1.843 27.703 27.703 0 0 1-5.848.622 27.435 27.435 0 0 1-19.364-7.943C3.065 41.615 0 34.835 0 27.346 0 19.858 3.065 13.078 8.02 8.17A27.435 27.435 0 0 1 27.386.227 27.435 27.435 0 0 1 46.75 8.17c4.955 4.908 8.02 11.688 8.02 19.176a27.009 27.009 0 0 1-1.274 8.2 1.914 1.914 0 0 1-.029.078c-1.286 3.893-3.512 6.515-6.172 8.165-2.664 1.654-6.023 1.68-9 1.643l-.1-.001H18.215zm3.909-26.413c-.541-1.988-2.4-2.98-4.7-3.647a11.13 11.13 0 0 1 9.96-6.109c6.471 0 12.898 6.122 10.02 12.909 1.655-1.261 1.865-3.353 1.604-5.725 4.27.266 7.652 3.78 7.652 8.076 0 4.469-3.659 8.092-8.172 8.092h-.008v8.938h-22.19v-8.938h-.012c-4.513 0-8.172-3.623-8.172-8.092 0-3.617 2.396-6.679 5.7-7.716 2.963-.928 6.245-.199 8.318 2.212z" mask="url(#b)"/>
        </g>
    </g>
</svg>
